<?xml version="1.0" encoding="utf-8"?>
<!-- Generator: Adobe Illustrator 24.0.0, SVG Export Plug-In . SVG Version: 6.00 Build 0)  -->
<svg version="1.1" id="Layer_1" xmlns="http://www.w3.org/2000/svg" xmlns:xlink="http://www.w3.org/1999/xlink" x="0px" y="0px"
	 viewBox="0 0 510.13 127.37" style="enable-background:new 0 0 510.13 127.37;" xml:space="preserve">
<style type="text/css">
	.st0{fill:none;stroke:#000000;stroke-width:10;stroke-linecap:round;stroke-linejoin:round;stroke-miterlimit:10;}
	.st1{fill:#FFFFFF;}
</style>
<g>
	<g>
		<g>
			<g>
				<path class="st1" d="M79.05,17.55c-1.8,2.15-3.54,4.55-5.22,7.21c-2.4,3.79-3.77,6.62-4.11,8.49c-0.1,0.53-0.05,0.94,0.12,1.21
					c0.18,0.28,0.5,0.41,0.95,0.41c1.09,0,2.59-1,4.49-3c1.2-1.23,2.3-2.47,3.28-3.7c0.54-0.7,1.05-1.05,1.53-1.05
					c0.28,0,0.51,0.1,0.67,0.29c0.14,0.19,0.19,0.38,0.16,0.57c-0.14,0.79-1.51,2.54-4.12,5.27c-3.12,3.28-5.72,4.91-7.81,4.91
					c-1.11,0-1.95-0.5-2.51-1.5c-0.34-0.64-0.41-1.54-0.2-2.71c0.46-2.57,1.77-5.57,3.91-9c0.52-0.85,1.92-2.9,4.18-6.16
					c-0.61,0.15-1.07,0.22-1.38,0.22c-0.46,0-0.84-0.11-1.15-0.32c-0.43-0.3-0.6-0.67-0.52-1.12c0.1-0.53,0.49-0.96,1.18-1.28
					c0.19-0.09,1.02-0.22,2.49-0.41c0.54-0.09,1.34-0.29,2.4-0.61c1-1.34,2.57-3.16,4.71-5.46c1.19-1.28,2-2.11,2.44-2.49
					c0.62-0.53,1.12-0.8,1.52-0.8c0.28,0,0.54,0.15,0.77,0.45c0.21,0.28,0.29,0.55,0.24,0.83c-0.1,0.55-0.91,1.65-2.42,3.29
					c-1,1.06-1.75,1.93-2.26,2.58c2.53-0.64,4.32-0.96,5.37-0.96c1.2,0,1.71,0.49,1.53,1.47c-0.09,0.49-0.36,0.85-0.82,1.08
					c-0.24,0.13-0.83,0.23-1.76,0.32c-0.37-0.02-2.08,0.38-5.15,1.21C80.72,17.05,79.88,17.3,79.05,17.55z"/>
				<path class="st1" d="M90.01,25.05c1.91-1.64,3.77-3.01,5.58-4.12c2.32-1.4,3.93-2.11,4.82-2.11c0.37,0,0.7,0.15,1,0.45
					c0.33,0.34,0.46,0.73,0.37,1.18c-0.1,0.57-0.73,1.47-1.89,2.68c-2.23,2.34-3.99,4.47-5.27,6.38c-1.13,1.66-1.74,2.79-1.85,3.38
					c-0.1,0.57,0.13,0.86,0.69,0.86c1.18,0,3.53-2.04,7.05-6.13c0.72-0.83,1.3-1.24,1.76-1.24s0.64,0.26,0.55,0.77
					c-0.15,0.83-1.26,2.41-3.34,4.75c-1.81,2.04-3.59,3.61-5.35,4.69c-1.24,0.74-2.31,1.12-3.21,1.12c-0.94,0-1.54-0.39-1.81-1.18
					c-0.17-0.49-0.21-1.03-0.1-1.63c0.34-1.89,1.42-4.05,3.23-6.48c0.43-0.57,1.71-2.21,3.83-4.91c-4.84,2.19-9.45,6.92-13.83,14.2
					c-0.43,0.83-0.94,1.24-1.53,1.24c-0.41,0-0.73-0.14-0.94-0.41c-0.21-0.3-0.27-0.66-0.2-1.08c0.13-0.7,1.18-2.69,3.17-5.97
					c3.69-6.08,7.04-11.23,10.04-15.44c3.01-4.25,6.3-8.67,9.87-13.24c0.85-1.11,1.5-1.85,1.94-2.23c0.44-0.38,0.87-0.57,1.28-0.57
					c0.39,0,0.69,0.2,0.9,0.61c0.16,0.3,0.21,0.64,0.14,1.02c-0.11,0.6-0.6,1.39-1.48,2.39c-2.99,3.55-6.04,7.46-9.14,11.71
					C92.97,20.28,90.87,23.39,90.01,25.05z"/>
				<path class="st1" d="M104.27,31.97l-0.1,0.57c-0.08,0.47-0.04,0.87,0.14,1.21c0.4,0.79,1.22,1.18,2.47,1.18
					c2.72,0,6.24-2.04,10.54-6.13c0.76-0.7,1.35-1.05,1.79-1.05c0.24,0,0.44,0.12,0.59,0.35c0.1,0.17,0.14,0.33,0.11,0.48
					c-0.15,0.83-1.45,2.23-3.9,4.21c-1.91,1.55-3.88,2.82-5.91,3.8c-2.03,0.98-3.84,1.47-5.43,1.47c-1.63,0-2.82-0.55-3.55-1.66
					c-0.49-0.77-0.62-1.81-0.38-3.13c0.65-3.6,3.02-7.12,7.1-10.56c3.32-2.81,6.02-4.21,8.11-4.21c0.57,0,1.05,0.17,1.44,0.51
					c0.49,0.45,0.66,1.03,0.53,1.76c-0.2,1.13-0.99,2.51-2.35,4.15C112.66,28.33,108.93,30.68,104.27,31.97z M105.44,29.49
					c1.62-0.51,2.92-1.08,3.9-1.72c1.73-1.15,3.17-2.45,4.33-3.89c0.42-0.51,0.66-0.97,0.74-1.37c0.08-0.43-0.09-0.64-0.51-0.64
					c-0.57,0-1.45,0.41-2.64,1.24C109.12,24.57,107.18,26.7,105.44,29.49z"/>
			</g>
			<path class="st1" d="M104.18,86.32h-0.36c-0.38,2.51-1.66,4.6-3.84,6.25c-2.18,1.66-5.14,2.49-8.89,2.49
				c-2.84,0-5.5-0.55-7.96-1.64c-2.46-1.09-4.62-2.7-6.47-4.83c-1.85-2.13-3.29-4.79-4.34-7.96c-1.04-3.17-1.56-6.85-1.56-11.02
				c0-4.17,0.54-7.87,1.63-11.09c1.09-3.22,2.62-5.92,4.59-8.1c1.97-2.18,4.32-3.84,7.07-4.98c2.75-1.14,5.8-1.71,9.17-1.71
				c4.45,0,8.29,0.96,11.52,2.88c3.22,1.92,5.76,4.8,7.61,8.64l-8.81,5.05c-0.76-1.94-1.94-3.59-3.55-4.94
				c-1.61-1.35-3.86-2.03-6.75-2.03c-3.37,0-6.04,0.97-8.03,2.91c-1.99,1.94-2.99,5-2.99,9.17v7.96c0,4.12,1,7.17,2.99,9.13
				c1.99,1.97,4.67,2.95,8.03,2.95c1.33,0,2.58-0.15,3.77-0.46c1.18-0.31,2.23-0.78,3.13-1.42c0.9-0.64,1.6-1.41,2.1-2.31
				c0.5-0.9,0.75-1.97,0.75-3.2v-2.49h-9.24v-9.03h19.55v27.65h-9.1V86.32z"/>
			<path class="st1" d="M138.8,95.06c-2.84,0-5.38-0.46-7.61-1.39c-2.23-0.92-4.11-2.23-5.65-3.91c-1.54-1.68-2.7-3.73-3.48-6.15
				c-0.78-2.42-1.17-5.12-1.17-8.1c0-2.94,0.38-5.6,1.14-8c0.76-2.39,1.88-4.44,3.38-6.15c1.49-1.71,3.33-3.02,5.51-3.94
				c2.18-0.92,4.67-1.39,7.46-1.39c3.08,0,5.72,0.52,7.93,1.56c2.2,1.04,4,2.44,5.4,4.19c1.4,1.75,2.42,3.78,3.06,6.08
				c0.64,2.3,0.96,4.7,0.96,7.21v3.13h-23.96v0.56c0,2.44,0.66,4.38,1.99,5.82c1.33,1.43,3.41,2.15,6.26,2.15
				c2.18,0,3.96-0.43,5.33-1.3c1.37-0.87,2.65-1.92,3.84-3.14l5.26,6.56c-1.66,1.95-3.83,3.47-6.5,4.56
				C145.26,94.51,142.21,95.06,138.8,95.06z M138.59,63.78c-2.13,0-3.8,0.7-5.01,2.1c-1.21,1.4-1.81,3.26-1.81,5.58v0.57h13.08
				v-0.64c0-2.27-0.51-4.11-1.53-5.51C142.29,64.48,140.72,63.78,138.59,63.78z"/>
			<path class="st1" d="M163.18,94.21V56.89h10.52v6.33h0.43c0.66-1.94,1.82-3.63,3.48-5.05c1.66-1.42,3.96-2.13,6.89-2.13
				c3.84,0,6.74,1.28,8.71,3.84c1.97,2.56,2.95,6.21,2.95,10.95v23.39h-10.52V71.67c0-2.42-0.38-4.2-1.14-5.37
				c-0.76-1.16-2.11-1.74-4.05-1.74c-0.85,0-1.68,0.11-2.49,0.32c-0.81,0.21-1.53,0.56-2.17,1.03c-0.64,0.47-1.15,1.06-1.53,1.74
				c-0.38,0.69-0.57,1.48-0.57,2.38v24.17H163.18z"/>
			<path class="st1" d="M221.11,95.06c-2.84,0-5.38-0.46-7.61-1.39c-2.23-0.92-4.11-2.23-5.65-3.91c-1.54-1.68-2.7-3.73-3.48-6.15
				c-0.78-2.42-1.17-5.12-1.17-8.1c0-2.94,0.38-5.6,1.14-8c0.76-2.39,1.88-4.44,3.38-6.15c1.49-1.71,3.33-3.02,5.51-3.94
				c2.18-0.92,4.67-1.39,7.46-1.39c3.08,0,5.72,0.52,7.93,1.56c2.2,1.04,4,2.44,5.4,4.19c1.4,1.75,2.42,3.78,3.06,6.08
				c0.64,2.3,0.96,4.7,0.96,7.21v3.13h-23.96v0.56c0,2.44,0.66,4.38,1.99,5.82c1.33,1.43,3.41,2.15,6.26,2.15
				c2.18,0,3.96-0.43,5.33-1.3c1.37-0.87,2.65-1.92,3.84-3.14l5.26,6.56c-1.66,1.95-3.83,3.47-6.5,4.56
				C227.57,94.51,224.52,95.06,221.11,95.06z M220.9,63.78c-2.13,0-3.8,0.7-5.01,2.1c-1.21,1.4-1.81,3.26-1.81,5.58v0.57h13.08
				v-0.64c0-2.27-0.51-4.11-1.53-5.51C224.61,64.48,223.03,63.78,220.9,63.78z"/>
			<path class="st1" d="M245.49,94.21V56.89h10.52v8.1h0.36c0.19-1.04,0.52-2.05,1-3.02c0.47-0.97,1.1-1.84,1.88-2.59
				c0.78-0.76,1.72-1.36,2.81-1.81c1.09-0.45,2.37-0.68,3.84-0.68h1.85v9.81h-2.63c-3.08,0-5.37,0.4-6.86,1.21
				c-1.49,0.81-2.24,2.3-2.24,4.48v21.82H245.49z"/>
			<path class="st1" d="M279.47,52.91c-2.13,0-3.69-0.49-4.66-1.46c-0.97-0.97-1.46-2.21-1.46-3.73v-1.56
				c0-1.52,0.49-2.76,1.46-3.73c0.97-0.97,2.52-1.46,4.66-1.46c2.13,0,3.68,0.49,4.66,1.46c0.97,0.97,1.46,2.22,1.46,3.73v1.56
				c0,1.52-0.49,2.76-1.46,3.73C283.15,52.42,281.6,52.91,279.47,52.91z M274.21,56.89h10.52v37.32h-10.52V56.89z"/>
			<path class="st1" d="M309.61,95.06c-2.8,0-5.28-0.46-7.46-1.39c-2.18-0.92-4-2.23-5.47-3.91c-1.47-1.68-2.58-3.73-3.34-6.15
				c-0.76-2.42-1.14-5.12-1.14-8.1c0-2.99,0.38-5.67,1.14-8.07c0.76-2.39,1.87-4.44,3.34-6.15c1.47-1.71,3.29-3.01,5.47-3.91
				c2.18-0.9,4.67-1.35,7.46-1.35c3.79,0,6.95,0.85,9.49,2.56c2.53,1.71,4.35,4.1,5.44,7.18l-8.53,3.7
				c-0.33-1.42-1.02-2.63-2.06-3.63c-1.04-0.99-2.49-1.49-4.34-1.49c-2.13,0-3.74,0.7-4.83,2.1c-1.09,1.4-1.63,3.28-1.63,5.65v6.97
				c0,2.37,0.54,4.24,1.63,5.62c1.09,1.37,2.7,2.06,4.83,2.06c1.89,0,3.4-0.51,4.51-1.53c1.11-1.02,1.93-2.36,2.45-4.02l8.17,3.55
				c-1.23,3.55-3.14,6.16-5.72,7.82C316.44,94.23,313.31,95.06,309.61,95.06z"/>
			<path class="st1" d="M364.7,95.06c-4.36,0-8.06-0.75-11.09-2.24c-3.03-1.49-5.62-3.43-7.75-5.8l7.11-7.19
				c3.36,3.76,7.51,5.64,12.44,5.64c2.65,0,4.62-0.54,5.9-1.62c1.28-1.08,1.92-2.51,1.92-4.3c0-1.36-0.38-2.5-1.14-3.42
				c-0.76-0.91-2.3-1.54-4.62-1.87l-4.9-0.63c-5.26-0.66-9.11-2.25-11.55-4.77c-2.44-2.51-3.66-5.86-3.66-10.03
				c0-2.23,0.43-4.27,1.28-6.12c0.85-1.85,2.07-3.44,3.66-4.77c1.59-1.33,3.53-2.36,5.83-3.1c2.3-0.74,4.92-1.1,7.86-1.1
				c3.74,0,7.04,0.59,9.88,1.78c2.84,1.19,5.28,2.92,7.32,5.2L376,57.98c-1.18-1.36-2.62-2.47-4.3-3.34c-1.68-0.87-3.8-1.3-6.36-1.3
				c-2.42,0-4.22,0.42-5.4,1.27c-1.19,0.84-1.78,2.02-1.78,3.52c0,1.69,0.46,2.91,1.39,3.66c0.92,0.75,2.43,1.29,4.51,1.62l4.9,0.78
				c5.12,0.81,8.91,2.38,11.37,4.73c2.46,2.35,3.7,5.68,3.7,10c0,2.37-0.43,4.55-1.28,6.55c-0.85,1.99-2.1,3.7-3.73,5.12
				c-1.64,1.42-3.66,2.53-6.08,3.31C370.53,94.67,367.78,95.06,364.7,95.06z"/>
			<path class="st1" d="M392.42,41.61h10.52v21.61h0.43c0.66-1.94,1.82-3.63,3.48-5.05c1.66-1.42,3.96-2.13,6.9-2.13
				c3.84,0,6.74,1.28,8.71,3.84c1.97,2.56,2.95,6.21,2.95,10.95v23.39h-10.52V71.67c0-2.42-0.38-4.2-1.14-5.37
				c-0.76-1.16-2.11-1.74-4.05-1.74c-0.85,0-1.68,0.11-2.49,0.32c-0.81,0.21-1.53,0.56-2.17,1.03c-0.64,0.47-1.15,1.06-1.53,1.74
				c-0.38,0.69-0.57,1.48-0.57,2.38v24.17h-10.52V41.61z"/>
			<path class="st1" d="M449.92,95.06c-2.75,0-5.2-0.45-7.36-1.35c-2.16-0.9-3.98-2.2-5.47-3.91c-1.49-1.71-2.64-3.77-3.45-6.18
				c-0.81-2.42-1.21-5.12-1.21-8.1c0-2.99,0.4-5.69,1.21-8.1c0.81-2.42,1.96-4.47,3.45-6.15c1.49-1.68,3.32-2.97,5.47-3.87
				c2.16-0.9,4.61-1.35,7.36-1.35c2.75,0,5.2,0.45,7.36,1.35c2.16,0.9,3.98,2.19,5.47,3.87c1.49,1.68,2.64,3.73,3.45,6.15
				c0.81,2.42,1.21,5.12,1.21,8.1c0,2.98-0.4,5.69-1.21,8.1c-0.81,2.42-1.95,4.48-3.45,6.18c-1.49,1.71-3.32,3.01-5.47,3.91
				C455.12,94.61,452.67,95.06,449.92,95.06z M449.92,86.74c2.08,0,3.7-0.64,4.83-1.92c1.14-1.28,1.71-3.1,1.71-5.47v-7.61
				c0-2.37-0.57-4.19-1.71-5.47c-1.14-1.28-2.75-1.92-4.83-1.92c-2.09,0-3.7,0.64-4.83,1.92c-1.14,1.28-1.71,3.1-1.71,5.47v7.61
				c0,2.37,0.57,4.19,1.71,5.47C446.23,86.1,447.84,86.74,449.92,86.74z"/>
			<path class="st1" d="M474.87,56.89h10.52v6.26h0.36c0.52-2.08,1.72-3.79,3.59-5.12c1.87-1.33,4.02-1.99,6.43-1.99
				c4.74,0,8.32,1.66,10.73,4.98c2.42,3.32,3.62,8.15,3.62,14.5c0,6.35-1.21,11.2-3.62,14.54c-2.42,3.34-6,5.01-10.73,5.01
				c-1.23,0-2.39-0.18-3.48-0.53c-1.09-0.36-2.07-0.85-2.95-1.49c-0.88-0.64-1.62-1.4-2.24-2.27c-0.62-0.88-1.07-1.81-1.35-2.81
				h-0.36v20.47h-10.52V56.89z M492.29,86.53c1.99,0,3.64-0.7,4.94-2.1c1.3-1.4,1.95-3.28,1.95-5.65v-6.47
				c0-2.37-0.65-4.25-1.95-5.65c-1.3-1.4-2.95-2.1-4.94-2.1c-1.99,0-3.64,0.49-4.94,1.46c-1.3,0.97-1.95,2.31-1.95,4.02v11.02
				c0,1.71,0.65,3.04,1.95,4.02C488.65,86.04,490.3,86.53,492.29,86.53z"/>
		</g>
		<g>
			<path class="st1" d="M121.47,31.2h21.83l-1.1,21.73c2.03,0.3,3.9,0.81,5.56,1.59c0.68,0.32,1.33,0.67,1.95,1.06l1.42-28
				c0.05-1.04-0.32-2.06-1.05-2.82c-0.72-0.76-1.72-1.19-2.77-1.19h-22.05C125.26,23.57,121.98,30.28,121.47,31.2z"/>
			<path class="st1" d="M74.1,90.82c-0.27-0.32-0.52-0.67-0.78-1L60,93.79L29.04,31.2h34.72c0.34-2.33,1.62-4.83,2.83-7.6
				c0-0.01,0.01-0.02,0.01-0.03H25.55c-2.12-5.45-5.59-12.61-9.63-14.23C11.25,7.47,4.33,8.86,2.99,9.16
				c-2.06,0.46-3.35,2.5-2.9,4.55c0.46,2.06,2.5,3.35,4.55,2.9c2.27-0.5,6.45-0.91,8.35-0.22c1.38,0.98,4.36,6.78,6.31,12.26
				c0.04,0.11,0.1,0.22,0.15,0.33c0.01,0.03,0.02,0.06,0.03,0.09l33.78,68.3c-4.34,3.85-9.28,9.53-7.58,14.4
				c0.96,2.77,3.56,4.36,7.69,4.79c-0.45,0.97-0.7,2.04-0.7,3.18c0,4.22,3.42,7.63,7.63,7.63c4.22,0,7.63-3.42,7.63-7.63
				c0-1.09-0.23-2.12-0.64-3.05h47.08c-0.41,0.94-0.64,1.97-0.64,3.05c0,4.22,3.42,7.63,7.63,7.63c4.22,0,7.63-3.42,7.63-7.63
				c0-1.09-0.23-2.12-0.64-3.05h3.69c2.11,0,3.82-1.71,3.82-3.82c0-2.11-1.71-3.82-3.82-3.82H55.72c-1.15,0-1.93-0.09-2.44-0.18
				c0.93-1.7,3.68-4.69,6.56-7.07l20.35-6.07C77.92,94.49,75.87,92.86,74.1,90.82z"/>
		</g>
	</g>
</g>
</svg>
